<svg width="25" height="25" viewBox="0 0 25 25"  xmlns="http://www.w3.org/2000/svg">
<mask id="mask0_767_4968" style="mask-type:alpha" maskUnits="userSpaceOnUse" x="0" y="0" width="25" height="25">
<rect width="25" height="25" />
</mask>
<g mask="url(#mask0_767_4968)">
<path d="M7.29167 17.7083H9.375V12.5H7.29167V17.7083ZM15.625 17.7083H17.7083V7.29167H15.625V17.7083ZM11.4583 17.7083H13.5417V14.5833H11.4583V17.7083ZM11.4583 12.5H13.5417V10.4167H11.4583V12.5ZM5.20833 21.875C4.63542 21.875 4.14479 21.6712 3.73646 21.2635C3.32882 20.8552 3.125 20.3646 3.125 19.7917V5.20833C3.125 4.63542 3.32882 4.14479 3.73646 3.73646C4.14479 3.32882 4.63542 3.125 5.20833 3.125H19.7917C20.3646 3.125 20.8552 3.32882 21.2635 3.73646C21.6712 4.14479 21.875 4.63542 21.875 5.20833V19.7917C21.875 20.3646 21.6712 20.8552 21.2635 21.2635C20.8552 21.6712 20.3646 21.875 19.7917 21.875H5.20833ZM5.20833 19.7917H19.7917V5.20833H5.20833V19.7917Z" />
</g>
</svg>
