<svg width="20" height="20" viewBox="0 0 20 20" xmlns="http://www.w3.org/2000/svg">
<path d="M13.6333 10.6333C15.2583 11.1833 16.6666 12.0833 16.6666 13.3333V17.5H3.33325V13.3333C3.33325 12.0833 4.74159 11.1833 6.37492 10.6333L6.89159 11.6667L7.08325 12.0833C5.83325 12.4667 4.91659 13.0167 4.91659 13.3333V15.9167H8.43325L9.16658 11.6917L8.38325 10.125C8.89992 10.0667 9.44159 10.025 9.99992 10.025C10.5583 10.025 11.0999 10.0667 11.6166 10.125L10.8333 11.6917L11.5666 15.9167H15.0833V13.3333C15.0833 13.0167 14.1666 12.4667 12.9166 12.0833L13.1083 11.6667L13.6333 10.6333ZM9.99992 4.16667C9.08325 4.16667 8.33325 4.91667 8.33325 5.83333C8.33325 6.75 9.08325 7.5 9.99992 7.5C10.9166 7.5 11.6666 6.75 11.6666 5.83333C11.6666 4.91667 10.9166 4.16667 9.99992 4.16667ZM9.99992 9.16667C8.15825 9.16667 6.66659 7.675 6.66659 5.83333C6.66659 3.99167 8.15825 2.5 9.99992 2.5C11.8416 2.5 13.3333 3.99167 13.3333 5.83333C13.3333 7.675 11.8416 9.16667 9.99992 9.16667Z" />
</svg>
